<svg width="16" height="16" viewBox="0 0 16 16" fill="none" xmlns="http://www.w3.org/2000/svg">
<g id="edit calendar">
<path id="Union" fill-rule="evenodd" clip-rule="evenodd" d="M3.35643 0.333313C3.26438 0.333313 3.18976 0.407932 3.18976 0.49998V1.40509H0.857123C0.567831 1.40509 0.333313 1.63961 0.333313 1.9289V14.786C0.333313 15.0753 0.56783 15.3099 0.857123 15.3099H15.1428C15.4321 15.3099 15.6666 15.0753 15.6666 14.786V1.9289C15.6666 1.63961 15.4321 1.40509 15.1428 1.40509H12.81V0.49998C12.81 0.407932 12.7353 0.333313 12.6433 0.333313H11.929C11.837 0.333313 11.7623 0.407932 11.7623 0.49998V1.40509H4.23738V0.49998C4.23738 0.407932 4.16276 0.333313 4.07071 0.333313H3.35643ZM11.7623 2.45271H4.23738V2.99998C4.23738 3.09203 4.16276 3.16665 4.07071 3.16665H3.35643C3.26438 3.16665 3.18976 3.09203 3.18976 2.99998V2.45271H1.38093V4.26154H14.619V2.45271H12.81V2.99998C12.81 3.09203 12.7353 3.16665 12.6433 3.16665H11.929C11.837 3.16665 11.7623 3.09203 11.7623 2.99998V2.45271ZM1.38093 5.30915H14.619V14.2622H1.38093V5.30915ZM9.78336 6.54377C9.57674 6.3533 9.25664 6.3598 9.05793 6.55851L5.19063 10.4258C4.82449 10.7919 4.61879 11.2885 4.61879 11.8063V12.6432C4.61879 12.9325 4.85331 13.167 5.1426 13.167H5.96866C6.49516 13.167 6.99935 12.9543 7.36683 12.5773L11.232 8.61146C11.3307 8.51017 11.3843 8.37325 11.3805 8.23186C11.3767 8.09046 11.3159 7.95661 11.2119 7.86074L9.78336 6.54377ZM5.93141 11.1666L9.44307 7.65493L10.1059 8.26595L6.61659 11.8461C6.44629 12.0208 6.21265 12.1194 5.96866 12.1194H5.66641V11.8063C5.66641 11.5664 5.76174 11.3363 5.93141 11.1666Z" fill="#102733"/>
</g>
</svg>
