<svg width="82" height="82" viewBox="0 0 82 82" fill="none" xmlns="http://www.w3.org/2000/svg">
<g id="image 1">
<path id="image-plus" d="M74.3125 37.5833V58.0833C74.5132 59.8144 74.3198 61.5685 73.7468 63.2143C73.1739 64.8601 72.2362 66.355 71.004 67.5873C69.7717 68.8195 68.2768 69.7572 66.631 70.3301C64.9852 70.9031 63.2311 71.0965 61.5 70.8958H20.5C18.7689 71.0965 17.0149 70.9031 15.3691 70.3301C13.7233 69.7572 12.2283 68.8195 10.9961 67.5873C9.76383 66.355 8.82616 64.8601 8.25321 63.2143C7.68027 61.5685 7.48688 59.8144 7.68752 58.0833V23.9167C7.48688 22.1856 7.68027 20.4315 8.25321 18.7857C8.82616 17.1399 9.76383 15.645 10.9961 14.4127C12.2283 13.1805 13.7233 12.2428 15.3691 11.6699C17.0149 11.0969 18.7689 10.9035 20.5 11.1042H44.4167C45.0963 11.1042 45.7481 11.3741 46.2286 11.8547C46.7092 12.3353 46.9792 12.987 46.9792 13.6667C46.9792 14.3463 46.7092 14.9981 46.2286 15.4786C45.7481 15.9592 45.0963 16.2292 44.4167 16.2292H20.5C15.1119 16.2292 12.8125 18.5286 12.8125 23.9167V55.5208L21.4909 46.8425C22.1359 46.2024 23.0079 45.8432 23.9167 45.8432C24.8255 45.8432 25.6974 46.2024 26.3425 46.8425L29.5542 50.0542C29.8735 50.3672 30.3029 50.5425 30.75 50.5425C31.1972 50.5425 31.6265 50.3672 31.9459 50.0542L48.8242 33.1758C49.4693 32.5357 50.3412 32.1765 51.25 32.1765C52.1588 32.1765 53.0308 32.5357 53.6759 33.1758L69.1875 48.6875V37.5833C69.1875 36.9037 69.4575 36.2519 69.9381 35.7714C70.4186 35.2908 71.0704 35.0208 71.75 35.0208C72.4296 35.0208 73.0814 35.2908 73.562 35.7714C74.0425 36.2519 74.3125 36.9037 74.3125 37.5833ZM27.3094 26.4792C26.1751 26.4823 25.0883 26.9356 24.2879 27.7394C23.4874 28.5432 23.0387 29.6318 23.0403 30.7662C23.0419 31.9006 23.4936 32.988 24.2963 33.7895C25.099 34.5911 26.187 35.0413 27.3214 35.0413C28.4558 35.0413 29.5438 34.5911 30.3465 33.7895C31.1492 32.988 31.6009 31.9006 31.6025 30.7662C31.6041 29.6318 31.1554 28.5432 30.3549 27.7394C29.5545 26.9356 28.4677 26.4823 27.3334 26.4792H27.3094ZM58.0834 19.6458H62.3542V23.9167C62.3542 24.5963 62.6242 25.2481 63.1047 25.7286C63.5853 26.2092 64.2371 26.4792 64.9167 26.4792C65.5963 26.4792 66.2481 26.2092 66.7287 25.7286C67.2092 25.2481 67.4792 24.5963 67.4792 23.9167V19.6458H71.75C72.4296 19.6458 73.0814 19.3759 73.562 18.8953C74.0425 18.4147 74.3125 17.763 74.3125 17.0833C74.3125 16.4037 74.0425 15.7519 73.562 15.2714C73.0814 14.7908 72.4296 14.5208 71.75 14.5208H67.4792V10.25C67.4792 9.57038 67.2092 8.9186 66.7287 8.43804C66.2481 7.95748 65.5963 7.6875 64.9167 7.6875C64.2371 7.6875 63.5853 7.95748 63.1047 8.43804C62.6242 8.9186 62.3542 9.57038 62.3542 10.25V14.5208H58.0834C57.4037 14.5208 56.752 14.7908 56.2714 15.2714C55.7908 15.7519 55.5209 16.4037 55.5209 17.0833C55.5209 17.763 55.7908 18.4147 56.2714 18.8953C56.752 19.3759 57.4037 19.6458 58.0834 19.6458Z" fill="white"/>
</g>
</svg>
